<?xml version="1.0" encoding="UTF-8"?>
<svg version="1.1" xmlns="http://www.w3.org/2000/svg" width="177" height="20">
<path d="M0 0 C3.125 2.375 3.125 2.375 5 5 C5 5.66 5 6.32 5 7 C0.72547397 7.19881516 -2.08091821 6.63295075 -6 5 C-6.99 5.495 -6.99 5.495 -8 6 C-8.95067299 9.28414305 -9.10102197 10.69693408 -8 14 C-6.1477633 15.00478037 -6.1477633 15.00478037 -4 15 C-3.54625 14.525625 -3.0925 14.05125 -2.625 13.5625 C-1 12 -1 12 5 12 C6.98 8.04 8.96 4.08 11 0 C12.98 0 14.96 0 17 0 C21.40774487 8.261959 21.40774487 8.261959 22 13 C24.64 13 27.28 13 30 13 C30.495 13.99 30.495 13.99 31 15 C32.32 15 33.64 15 35 15 C35.33 14.34 35.66 13.68 36 13 C35.38511719 12.87882813 34.77023438 12.75765625 34.13671875 12.6328125 C32.92435547 12.38144531 32.92435547 12.38144531 31.6875 12.125 C30.88699219 11.96257813 30.08648437 11.80015625 29.26171875 11.6328125 C27 11 27 11 24 9 C23.60828363 5.9315551 23.35895528 3.91274579 25.1796875 1.3203125 C27.6974392 -0.50586792 29.42356828 -0.2991447 32.5 -0.1875 C33.93859375 -0.14689453 33.93859375 -0.14689453 35.40625 -0.10546875 C36.2621875 -0.07066406 37.118125 -0.03585937 38 0 C38.99 0 39.98 0 41 0 C47.33333333 0 53.66666667 0 60 0 C60 5.94 60 11.88 60 18 C62.97 18 65.94 18 69 18 C69.4125 16.700625 69.825 15.40125 70.25 14.0625 C71.85533149 9.22346248 73.84913976 4.61834458 76 0 C76.99 0 77.98 0 79 0 C80.98 4.29 82.96 8.58 85 13 C85.495 6.565 85.495 6.565 86 0 C97.625 -0.25 97.625 -0.25 101 2 C101.1875 5 101.1875 5 101 8 C101 8.66 101 9.32 101 10 C101.495 10.495 101.495 10.495 102 11 C102.46 16.29 102.46 16.29 100.921875 18.6640625 C98.0097986 20.68831073 95.50367521 20.47080271 92 20.5 C90.14375 20.54640625 90.14375 20.54640625 88.25 20.59375 C87.1775 20.3978125 86.105 20.201875 85 20 C83.34375 17.5078125 83.34375 17.5078125 82 15 C79.84635568 14.21468288 79.84635568 14.21468288 77.5 14.375 C76.7265625 14.36210937 75.953125 14.34921875 75.15625 14.3359375 C72.7234047 14.81226487 72.7234047 14.81226487 71.60546875 17.51953125 C71.07566406 18.33808594 70.54585938 19.15664063 70 20 C65.91846799 20.68298728 62.16263407 20.22379753 58 20 C58 15.05 58 10.1 58 5 C56.68 5 55.36 5 54 5 C54 9.95 54 14.9 54 20 C52.02 20 50.04 20 48 20 C48 15.05 48 10.1 48 5 C45.15375 5.2475 45.15375 5.2475 42.25 5.5 C38.80013434 5.79998832 35.46693748 6 32 6 C32.62648437 6.14695312 33.25296875 6.29390625 33.8984375 6.4453125 C40.53827017 8.26760096 40.53827017 8.26760096 42.8125 11.875 C43 15 43 15 41.8125 17.875 C37.47590034 21.15154197 33.24397575 20.36027314 28 20 C27.01 20 26.02 20 25 20 C22.66666667 20 20.33333333 20 18 20 C18 19.01 18 18.02 18 17 C15.36 17 12.72 17 10 17 C9.67 17.99 9.34 18.98 9 20 C6 20 3 20 0 20 C-1.14082031 20.06960937 -1.14082031 20.06960937 -2.3046875 20.140625 C-9.28514589 20.43766578 -9.28514589 20.43766578 -13.0625 18.125 C-15.58448151 15.35895577 -15.96394999 14.47766258 -16.25 10.6875 C-15.984656 6.77367606 -15.36680088 5.06807521 -13 2 C-8.77339993 -0.81773338 -4.96428288 -0.79839581 0 0 Z M88 2 C88 3.98 88 5.96 88 8 C91.3 8 94.6 8 98 8 C98.33 6.68 98.66 5.36 99 4 C97.21342243 1.78629949 97.21342243 1.78629949 94.8359375 1.8046875 C94.02382812 1.82789062 93.21171875 1.85109375 92.375 1.875 C91.14910156 1.90207031 91.14910156 1.90207031 89.8984375 1.9296875 C88.95871094 1.96449219 88.95871094 1.96449219 88 2 Z M77 3 C76.01 5.97 75.02 8.94 74 12 C76.31 12 78.62 12 81 12 C80.01 9.03 79.02 6.06 78 3 C77.67 3 77.34 3 77 3 Z M13 8 C12.67 9.32 12.34 10.64 12 12 C12.99 12 13.98 12 15 12 C14.67 10.68 14.34 9.36 14 8 C13.67 8 13.34 8 13 8 Z M88 11 C88 13.31 88 15.62 88 18 C89.43655854 18.08131463 90.8744483 18.13933559 92.3125 18.1875 C93.11300781 18.22230469 93.91351563 18.25710937 94.73828125 18.29296875 C97.47851584 17.93801608 98.29171079 17.10633718 100 15 C99.34 13.68 98.68 12.36 98 11 C94.7 11 91.4 11 88 11 Z " fill="#000000" transform="translate(69,0)"/>
<path d="M0 0 C1.98 0 3.96 0 6 0 C6 2.31 6 4.62 6 7 C8.31 7 10.62 7 13 7 C13 4.69 13 2.38 13 0 C18.94 0 24.88 0 31 0 C31 1.65 31 3.3 31 5 C27.37 5 23.74 5 20 5 C20 5.66 20 6.32 20 7 C22.97 7 25.94 7 29 7 C29 8.65 29 10.3 29 12 C26.03 12 23.06 12 20 12 C20 12.99 20 13.98 20 15 C23.63 15 27.26 15 31 15 C31 16.65 31 18.3 31 20 C25.06 20 19.12 20 13 20 C13 17.36 13 14.72 13 12 C10.69 12 8.38 12 6 12 C6 14.64 6 17.28 6 20 C4.02 20 2.04 20 0 20 C0 13.4 0 6.8 0 0 Z " fill="#000000" transform="translate(19,0)"/>
<path d="M0 0 C5.94 0 11.88 0 18 0 C18 1.65 18 3.3 18 5 C16.02 5 14.04 5 12 5 C12 9.95 12 14.9 12 20 C10.02 20 8.04 20 6 20 C6 15.05 6 10.1 6 5 C4.02 5 2.04 5 0 5 C0 3.35 0 1.7 0 0 Z " fill="#000000" transform="translate(0,0)"/>
<path d="M0 0 C1.2065625 0.0309375 1.2065625 0.0309375 2.4375 0.0625 C2.4375 1.7125 2.4375 3.3625 2.4375 5.0625 C0.7875 5.0625 -0.8625 5.0625 -2.5625 5.0625 C-3.125 3.125 -3.125 3.125 -3.5625 1.0625 C-2.5625 0.0625 -2.5625 0.0625 0 0 Z " fill="#000000" transform="translate(174.5625,-0.0625)"/>
</svg>
